<svg class="diagram-root" style="background: #f5f6f6" xmlns="http://www.w3.org/2000/svg" xmlns:xlink="http://www.w3.org/1999/xlink"><style>.diagram-root { font-family: "Helvetica Neue", sans-serif; font-size: 12px; } .t { overflow: visible; } .t-bg { y: 40; fill: #fff;   } .th { fill: #005aa0;   } .tht { fill: #fff; font-size: 14px;  } .tf { fill: #323c46; overflow: visible; } .tf.pk { fill: #005aa0; font-weight: bold; } .tf.fk { font-weight: bold; } .ty { fill: #adb1b5; font-weight: normal; text-anchor: end; } .r { fill: transparent; stroke: #c3c3c3; stroke-width: 1; } .l { stroke: 1; } .i { fill: #c2c7ce; stroke: #c2c7ce; } .i.ix { fill: #afb3b6; stroke: #000; } .fa { fill: transparent; overflow: visible; } .fa .bg.hover { fill: #f7f7f7; } .c { cy: 12; r: 4; stroke: #d2d2dc; fill: #d2d2dc; } .hr { fill: transparent; stroke: #323c46; stroke-opacity: 0.035; stroke-width: 13; } .dc { stroke: #fa5a3c; fill: #fa5a3c; } .x { stroke: white; stroke-width: 1; } .hl .th { fill: #1b9bff; } .hl .tht {  } .fhl .bg { fill: #e7f4ff; } .fhls .bg {  } .r.hl { stroke: #1b9bff; } .dim { opacity: 0.25; }</style><g class="drawing-wrapper" transform="translate(-75, -2) scale(1,1)"><g class="rs"><path d="M 317.87 214 m -1, 0 a 1,1 0 1,0 2,0 a 1,1 0 1,0 -2,0 M 317.87 214 m -0.5, 0 a 0.5,0.5 0 1,0 1,0 a 0.5,0.5 0 1,0 -1,0  M317.87 214 L317.87 214 329.87 214 M 317.87 220 m -1, 0 a 1,1 0 1,0 2,0 a 1,1 0 1,0 -2,0 M 317.87 220 m -0.5, 0 a 0.5,0.5 0 1,0 1,0 a 0.5,0.5 0 1,0 -1,0  M317.87 220 L317.87 220 324.87 214 317.87 208 M 317.87 208 m -1, 0 a 1,1 0 1,0 2,0 a 1,1 0 1,0 -2,0 M 317.87 208 m -0.5, 0 a 0.5,0.5 0 1,0 1,0 a 0.5,0.5 0 1,0 -1,0  M329.87 214 Q 422.65 214, 515.43 262.5 T 701 311 M 713 311 m -1, 0 a 1,1 0 1,0 2,0 a 1,1 0 1,0 -2,0 M 713 311 m -0.5, 0 a 0.5,0.5 0 1,0 1,0 a 0.5,0.5 0 1,0 -1,0  M713 311 L713 311 701 311 M707 317 L707 317 707 305" id="h2666338263" class="r"></path><path d="M 308.87 737 m -1, 0 a 1,1 0 1,0 2,0 a 1,1 0 1,0 -2,0 M 308.87 737 m -0.5, 0 a 0.5,0.5 0 1,0 1,0 a 0.5,0.5 0 1,0 -1,0  M308.87 737 L308.87 737 320.87 737 M 308.87 743 m -1, 0 a 1,1 0 1,0 2,0 a 1,1 0 1,0 -2,0 M 308.87 743 m -0.5, 0 a 0.5,0.5 0 1,0 1,0 a 0.5,0.5 0 1,0 -1,0  M308.87 743 L308.87 743 315.87 737 308.87 731 M 308.87 731 m -1, 0 a 1,1 0 1,0 2,0 a 1,1 0 1,0 -2,0 M 308.87 731 m -0.5, 0 a 0.5,0.5 0 1,0 1,0 a 0.5,0.5 0 1,0 -1,0  M320.87 737 Q 415.91 737, 510.94 524 T 701 311 M 713 311 m -1, 0 a 1,1 0 1,0 2,0 a 1,1 0 1,0 -2,0 M 713 311 m -0.5, 0 a 0.5,0.5 0 1,0 1,0 a 0.5,0.5 0 1,0 -1,0  M713 311 L713 311 701 311 M707 317 L707 317 707 305" id="h411334821" class="r"></path><path d="M 713 311 m -1, 0 a 1,1 0 1,0 2,0 a 1,1 0 1,0 -2,0 M 713 311 m -0.5, 0 a 0.5,0.5 0 1,0 1,0 a 0.5,0.5 0 1,0 -1,0  M713 311 L713 311 701 311 M 713 317 m -1, 0 a 1,1 0 1,0 2,0 a 1,1 0 1,0 -2,0 M 713 317 m -0.5, 0 a 0.5,0.5 0 1,0 1,0 a 0.5,0.5 0 1,0 -1,0  M713 317 L713 317 706 311 713 305 M 713 305 m -1, 0 a 1,1 0 1,0 2,0 a 1,1 0 1,0 -2,0 M 713 305 m -0.5, 0 a 0.5,0.5 0 1,0 1,0 a 0.5,0.5 0 1,0 -1,0  M701 311 Q 680.97 311, 660.94 378.5 T 620.87 446 M 608.87 446 m -1, 0 a 1,1 0 1,0 2,0 a 1,1 0 1,0 -2,0 M 608.87 446 m -0.5, 0 a 0.5,0.5 0 1,0 1,0 a 0.5,0.5 0 1,0 -1,0  M608.87 446 L608.87 446 620.87 446 M614.87 452 L614.87 452 614.87 440" id="h544781381" class="r"></path><path d="M 924.87 386 m -1, 0 a 1,1 0 1,0 2,0 a 1,1 0 1,0 -2,0 M 924.87 386 m -0.5, 0 a 0.5,0.5 0 1,0 1,0 a 0.5,0.5 0 1,0 -1,0  M924.87 386 L924.87 386 936.87 386 M 924.87 392 m -1, 0 a 1,1 0 1,0 2,0 a 1,1 0 1,0 -2,0 M 924.87 392 m -0.5, 0 a 0.5,0.5 0 1,0 1,0 a 0.5,0.5 0 1,0 -1,0  M924.87 392 L924.87 392 931.87 386 924.87 380 M 924.87 380 m -1, 0 a 1,1 0 1,0 2,0 a 1,1 0 1,0 -2,0 M 924.87 380 m -0.5, 0 a 0.5,0.5 0 1,0 1,0 a 0.5,0.5 0 1,0 -1,0  M936.87 386 Q 965.41 386, 993.94 542 T 1051 698 M 1063 698 m -1, 0 a 1,1 0 1,0 2,0 a 1,1 0 1,0 -2,0 M 1063 698 m -0.5, 0 a 0.5,0.5 0 1,0 1,0 a 0.5,0.5 0 1,0 -1,0  M1063 698 L1063 698 1051 698 M1057 704 L1057 704 1057 692" id="h91431973" class="r"></path><path d="M 924.87 411 m -1, 0 a 1,1 0 1,0 2,0 a 1,1 0 1,0 -2,0 M 924.87 411 m -0.5, 0 a 0.5,0.5 0 1,0 1,0 a 0.5,0.5 0 1,0 -1,0  M924.87 411 L924.87 411 936.87 411 M 924.87 417 m -1, 0 a 1,1 0 1,0 2,0 a 1,1 0 1,0 -2,0 M 924.87 417 m -0.5, 0 a 0.5,0.5 0 1,0 1,0 a 0.5,0.5 0 1,0 -1,0  M924.87 417 L924.87 417 931.87 411 924.87 405 M 924.87 405 m -1, 0 a 1,1 0 1,0 2,0 a 1,1 0 1,0 -2,0 M 924.87 405 m -0.5, 0 a 0.5,0.5 0 1,0 1,0 a 0.5,0.5 0 1,0 -1,0  M936.87 411 Q 965.41 411, 993.94 554.5 T 1051 698 M 1063 698 m -1, 0 a 1,1 0 1,0 2,0 a 1,1 0 1,0 -2,0 M 1063 698 m -0.5, 0 a 0.5,0.5 0 1,0 1,0 a 0.5,0.5 0 1,0 -1,0  M1063 698 L1063 698 1051 698 M1057 704 L1057 704 1057 692" id="h1495923374" class="r"></path><path d="M 1063 448 m -1, 0 a 1,1 0 1,0 2,0 a 1,1 0 1,0 -2,0 M 1063 448 m -0.5, 0 a 0.5,0.5 0 1,0 1,0 a 0.5,0.5 0 1,0 -1,0  M1063 448 L1063 448 1051 448 M 1063 454 m -1, 0 a 1,1 0 1,0 2,0 a 1,1 0 1,0 -2,0 M 1063 454 m -0.5, 0 a 0.5,0.5 0 1,0 1,0 a 0.5,0.5 0 1,0 -1,0  M1063 454 L1063 454 1056 448 1063 442 M 1063 442 m -1, 0 a 1,1 0 1,0 2,0 a 1,1 0 1,0 -2,0 M 1063 442 m -0.5, 0 a 0.5,0.5 0 1,0 1,0 a 0.5,0.5 0 1,0 -1,0  M1051 448 Q 1022.47 448, 993.94 379.5 T 936.87 311 M 924.87 311 m -1, 0 a 1,1 0 1,0 2,0 a 1,1 0 1,0 -2,0 M 924.87 311 m -0.5, 0 a 0.5,0.5 0 1,0 1,0 a 0.5,0.5 0 1,0 -1,0  M924.87 311 L924.87 311 936.87 311 M930.87 317 L930.87 317 930.87 305" id="h4239164440" class="r"></path></g><g class="hrs"></g><g class="ts"><svg width="211.87" height="375" x="106" y="32" id="h2297420236" class="t"><rect height="40" width="211.87" class="th"></rect><text x="13" y="25" class="tht">us_country</text><rect height="335" width="211.87" class="t-bg" y="40"></rect><text x="13" y="61" class="tf">youtube_entries<tspan x="198.87" class="ty">INT?</tspan></text><text x="13" y="86" class="tf">video_id<tspan x="198.87" class="ty">TEXT?</tspan></text><text x="13" y="111" class="tf">trending_date<tspan x="198.87" class="ty">VARCHAR(60)?</tspan></text><text x="13" y="136" class="tf">title<tspan x="198.87" class="ty">TEXT?</tspan></text><text x="13" y="161" class="tf">channel_title<tspan x="198.87" class="ty">TEXT?</tspan></text><text x="13" y="186" class="tf fk">category_id<tspan x="198.87" class="ty">INT?</tspan></text><text x="13" y="211" class="tf">publish_time<tspan x="198.87" class="ty">VARCHAR(60)?</tspan></text><text x="13" y="236" class="tf">tags<tspan x="198.87" class="ty">TEXT?</tspan></text><text x="13" y="261" class="tf">likes<tspan x="198.87" class="ty">INTEGER</tspan></text><text x="13" y="286" class="tf">dislikes<tspan x="198.87" class="ty">INTEGER</tspan></text><text x="13" y="311" class="tf">comment_count<tspan x="198.87" class="ty">INTEGER</tspan></text><text x="13" y="336" class="tf">category<tspan x="198.87" class="ty">TEXT?</tspan></text><text x="13" y="361" class="tf">country<tspan x="198.87" class="ty">TEXT?</tspan></text></svg><svg width="211.87" height="350" x="397" y="289" id="h3925505855" class="t"><rect height="40" width="211.87" class="th"></rect><text x="13" y="25" class="tht">ca_country</text><rect height="310" width="211.87" class="t-bg" y="40"></rect><text x="13" y="61" class="tf">video_id<tspan x="198.87" class="ty">TEXT?</tspan></text><text x="13" y="86" class="tf">trending_date<tspan x="198.87" class="ty">VARCHAR(60)?</tspan></text><text x="13" y="111" class="tf">title<tspan x="198.87" class="ty">TEXT?</tspan></text><text x="13" y="136" class="tf">channel_title<tspan x="198.87" class="ty">TEXT?</tspan></text><text x="13" y="161" class="tf fk">category_id<tspan x="198.87" class="ty">INT?</tspan></text><text x="13" y="186" class="tf">publish_time<tspan x="198.87" class="ty">VARCHAR(60)?</tspan></text><text x="13" y="211" class="tf">tags<tspan x="198.87" class="ty">TEXT?</tspan></text><text x="13" y="236" class="tf">likes<tspan x="198.87" class="ty">INTEGER</tspan></text><text x="13" y="261" class="tf">dislikes<tspan x="198.87" class="ty">INTEGER</tspan></text><text x="13" y="286" class="tf">comment_count<tspan x="198.87" class="ty">INTEGER</tspan></text><text x="13" y="311" class="tf">category<tspan x="198.87" class="ty">TEXT?</tspan></text><text x="13" y="336" class="tf">country<tspan x="198.87" class="ty">TEXT?</tspan></text></svg><svg width="211.87" height="350" x="97" y="580" id="h1398550996" class="t"><rect height="40" width="211.87" class="th"></rect><text x="13" y="25" class="tht">gb_country</text><rect height="310" width="211.87" class="t-bg" y="40"></rect><text x="13" y="61" class="tf">video_id<tspan x="198.87" class="ty">TEXT?</tspan></text><text x="13" y="86" class="tf">trending_date<tspan x="198.87" class="ty">VARCHAR(60)?</tspan></text><text x="13" y="111" class="tf">title<tspan x="198.87" class="ty">TEXT?</tspan></text><text x="13" y="136" class="tf">channel_title<tspan x="198.87" class="ty">TEXT?</tspan></text><text x="13" y="161" class="tf fk">category_id<tspan x="198.87" class="ty">INT?</tspan></text><text x="13" y="186" class="tf">publish_time<tspan x="198.87" class="ty">VARCHAR(60)?</tspan></text><text x="13" y="211" class="tf">tags<tspan x="198.87" class="ty">TEXT?</tspan></text><text x="13" y="236" class="tf">likes<tspan x="198.87" class="ty">INTEGER</tspan></text><text x="13" y="261" class="tf">dislikes<tspan x="198.87" class="ty">INTEGER</tspan></text><text x="13" y="286" class="tf">comment_count<tspan x="198.87" class="ty">INTEGER</tspan></text><text x="13" y="311" class="tf">category<tspan x="198.87" class="ty">TEXT?</tspan></text><text x="13" y="336" class="tf">country<tspan x="198.87" class="ty">TEXT?</tspan></text></svg><svg width="211.87" height="375" x="713" y="129" id="h389965834" class="t"><rect height="40" width="211.87" class="th"></rect><text x="13" y="25" class="tht">worlds_table</text><rect height="335" width="211.87" class="t-bg" y="40"></rect><text x="13" y="61" class="tf">youtube_entries<tspan x="198.87" class="ty">INT?</tspan></text><text x="13" y="86" class="tf">video_id<tspan x="198.87" class="ty">TEXT?</tspan></text><text x="13" y="111" class="tf">trending_date<tspan x="198.87" class="ty">VARCHAR(60)?</tspan></text><text x="13" y="136" class="tf">title<tspan x="198.87" class="ty">TEXT?</tspan></text><text x="13" y="161" class="tf">channel_title<tspan x="198.87" class="ty">TEXT?</tspan></text><text x="13" y="186" class="tf fk">category_id<tspan x="198.87" class="ty">INT?</tspan></text><text x="13" y="211" class="tf">publish_time<tspan x="198.87" class="ty">VARCHAR(60)?</tspan></text><text x="13" y="236" class="tf">tags<tspan x="198.87" class="ty">TEXT?</tspan></text><text x="13" y="261" class="tf fk">likes<tspan x="198.87" class="ty">INTEGER</tspan></text><text x="13" y="286" class="tf fk">dislikes<tspan x="198.87" class="ty">INTEGER</tspan></text><text x="13" y="311" class="tf">comment_count<tspan x="198.87" class="ty">INTEGER</tspan></text><text x="13" y="336" class="tf">category<tspan x="198.87" class="ty">TEXT?</tspan></text><text x="13" y="361" class="tf">country<tspan x="198.87" class="ty">TEXT?</tspan></text></svg><svg width="211.87" height="325" x="1063" y="391" id="h1283241934" class="t"><rect height="40" width="211.87" class="th"></rect><text x="13" y="25" class="tht">worlds_category</text><rect height="285" width="211.87" class="t-bg" y="40"></rect><text x="13" y="61" class="tf fk">category_id<tspan x="198.87" class="ty">INT?</tspan></text><text x="13" y="86" class="tf">video_id<tspan x="198.87" class="ty">TEXT?</tspan></text><text x="13" y="111" class="tf">trending_date<tspan x="198.87" class="ty">VARCHAR(60)?</tspan></text><text x="13" y="136" class="tf">title<tspan x="198.87" class="ty">TEXT?</tspan></text><text x="13" y="161" class="tf">channel_title<tspan x="198.87" class="ty">TEXT?</tspan></text><text x="13" y="186" class="tf">publish_time<tspan x="198.87" class="ty">VARCHAR(60)?</tspan></text><text x="13" y="211" class="tf">tags<tspan x="198.87" class="ty">TEXT?</tspan></text><text x="13" y="236" class="tf">comment_count<tspan x="198.87" class="ty">INTEGER</tspan></text><text x="13" y="261" class="tf">country<tspan x="198.87" class="ty">TEXT?</tspan></text><text x="13" y="286" class="tf">category<tspan x="198.87" class="ty">TEXT?</tspan></text><text x="13" y="311" class="tf fk">total_feedback<tspan x="198.87" class="ty">INT</tspan></text></svg></g></g><text class="qdbd-link" x="10" y="20">www.quickdatabasediagrams.com</text></svg>